<?xml version="1.0" encoding="UTF-8" standalone="no"?>
<svg xmlns:cc="http://creativecommons.org/ns#" xmlns:dc="http://purl.org/dc/elements/1.1/"
    xmlns:inkscape="http://www.inkscape.org/namespaces/inkscape"
    xmlns:rdf="http://www.w3.org/1999/02/22-rdf-syntax-ns#"
    xmlns:sodipodi="http://sodipodi.sourceforge.net/DTD/sodipodi-0.dtd"
    xmlns:svg="http://www.w3.org/2000/svg" height="3.9370079in" id="svg8" version="1.1"
    viewBox="0 0 100 100" width="3.9370079in" xmlns="http://www.w3.org/2000/svg"
    inkscape:export-filename="/home/anze/Documents/AndroidStudioProjects/simple-weight-tracker-plus/app/src/main/res/drawable/weight_icon.png"
    inkscape:export-xdpi="320.04001" inkscape:export-ydpi="320.04001"
    inkscape:version="1.0 (1.0+r73+1)" sodipodi:docname="weight_icon.svg">
    <defs id="defs2" />
    <sodipodi:namedview bordercolor="#666666" borderopacity="1.0" fit-margin-bottom="0"
        fit-margin-left="0" fit-margin-right="0" fit-margin-top="0" id="base" pagecolor="#ffffff"
        showgrid="false" units="in" inkscape:current-layer="g1047" inkscape:cx="200.99181"
        inkscape:cy="238.42909" inkscape:document-rotation="0" inkscape:document-units="mm"
        inkscape:pageopacity="0.0" inkscape:pageshadow="2" inkscape:snap-global="false"
        inkscape:window-height="1025" inkscape:window-maximized="1" inkscape:window-width="1920"
        inkscape:window-x="1920" inkscape:window-y="0" inkscape:zoom="1.4142136" />
    <metadata id="metadata5">
        <rdf:RDF>
            <cc:Work rdf:about="">
                <dc:format>image/svg+xml</dc:format>
                <dc:type rdf:resource="http://purl.org/dc/dcmitype/StillImage" />
                <dc:title></dc:title>
            </cc:Work>
        </rdf:RDF>
    </metadata>
    <g id="layer1" transform="translate(84.7825,-58.87235)" inkscape:groupmode="layer"
        inkscape:label="Ebene 1">
        <g id="g1047" transform="matrix(0.79911989,0,0,0.79627669,-17.031118,11.99367)">
            <path
                style="fill:#ebdaf2;fill-opacity:1;stroke:#000000;stroke-width:0.248426px;stroke-linecap:butt;stroke-linejoin:miter;stroke-opacity:1"
                d="M -70.898504,71.699006 33.248103,71.176862 22.739555,182.09356 -67.210343,180.99574 -77.586584,74.645105 Z"
                id="path916" sodipodi:nodetypes="cccccc" />
            <path
                style="fill:#3c0157;fill-opacity:1;stroke:none;stroke-width:2.03279;stroke-miterlimit:4;stroke-dasharray:none;stroke-opacity:1"
                d="m -64.215333,183.73053 c -3.297204,-0.96578 -6.932616,-4.55156 -7.925023,-7.89338 -0.274619,-0.92474 -0.354295,-1.07436 -0.940591,-7.46449 -0.323118,-3.5217 -0.800112,-8.93884 -1.548417,-17.42576 -0.891497,-10.11094 -2.282687,-25.87357 -3.09154,-35.02807 -0.808863,-9.1545 -1.779898,-20.221879 -2.157866,-24.59418 -0.377967,-4.372292 -0.775812,-7.986893 -0.884099,-8.032441 -0.296721,-0.124793 -0.246066,-7.245755 0.05155,-7.245755 0.136633,0 0.248432,-0.187299 0.248432,-0.41622 0,-0.228912 0.404257,-1.234378 0.898362,-2.234351 0.641141,-1.297577 1.34981,-2.240463 2.475121,-3.293129 1.478622,-1.38318 4.264991,-2.999638 5.17062,-2.999638 0.219579,0 0.399234,-0.111789 0.399234,-0.248422 0,-0.164793 16.644541,-0.248433 49.436777,-0.248433 27.1902329,0 47.839891,-0.227112 48.685129,0.168711 2.187102,1.091938 5.435872,2.334756 6.9527,3.967101 1.192107,1.304366 2.152128,2.139219 2.583001,4.550726 0.931407,5.586712 -0.01771,11.276932 -0.424826,16.031851 -0.377967,4.372301 -1.353744,15.49557 -2.168391,24.71839 -0.814637,9.22282 -2.152391,24.3706 -2.972784,33.66173 -2.243749,25.41109 -2.188906,24.87845 -2.715873,26.37775 -1.613298,4.78941 -6.962329,8.00765 -8.700219,8.06858 0,0.115 -18.5574295,0.2091 -41.238728,0.2091 -15.071998,0.25475 -29.272748,-0.008 -42.132567,-0.62967 z m 83.224652,-4.84865 c 1.818282,-0.68031 3.718785,-2.71834 4.232757,-4.53905 0.319416,-1.13154 0.936023,-7.51399 2.872272,-29.73079 0.279839,-3.2109 1.065351,-12.09835 1.745579,-19.74987 0.680229,-7.65153 1.346552,-15.19746 1.480726,-16.76876 0.134174,-1.5713 0.748189,-8.465156 1.364486,-15.319695 0.616287,-6.85454 1.119433,-13.170771 1.1181,-14.036073 -0.0028,-2.084797 -0.765287,-3.709161 -2.451357,-5.225087 -2.360018,-2.121857 2.372815,-1.950793 -51.960986,-1.878148 l -48.3094,0.0646 -0.993701,0.534619 c -2.485816,1.337379 -4.092471,3.866798 -4.096603,6.449428 -9.38e-4,0.835265 0.391751,5.921785 0.873527,11.303383 0.481776,5.381588 1.266264,14.256383 1.743317,19.721753 0.477063,5.46537 1.253795,14.24103 1.726097,19.50145 0.472293,5.26041 1.142785,12.86225 1.489974,16.89297 1.862355,21.62107 2.392186,27.05798 2.75667,28.28782 0.588796,1.98672 2.756003,4.14917 4.764381,4.7539 0.373827,0.11256 18.590114,0.21426 40.480633,0.22601 39.556037,0.0212 39.809343,0.0182 41.163528,-0.48845 z m -54.666606,-64.05617 c -0.978894,-0.14175 -1.412812,-0.56625 -8.913019,-8.71971 -4.336218,-4.71388 -8.095771,-8.804102 -8.354569,-9.089388 -0.976094,-2.481859 0.308586,-3.804404 1.870627,-5.625514 2.344803,-2.733695 5.144817,-3.716503 8.675309,-5.41847 12.694234,-6.119608 27.844134,-6.113289 40.6144306,0.0169 3.2510838,1.560648 6.6556737,3.713846 9.167667,5.798005 1.7760737,1.331289 1.4294656,2.021463 1.7044829,3.884535 0.1244743,0.821839 -0.00751,1.01924 -2.3999412,3.602179 -2.933931,3.166933 -3.2722098,3.532793 -9.5323205,10.309683 l -4.7043737,5.09273 -1.6728312,0.20822 c -1.6243349,0.20218 -1.7058439,0.18549 -2.8122829,-0.57576 -2.722596,-1.87319 -5.902292,-2.73778 -10.068676,-2.73778 -4.148582,0 -7.347555,0.86562 -10.036838,2.71589 -1.119743,0.7704 -1.517625,0.83096 -3.537665,0.53844 z m 3.217386,-5.9716 c 2.879611,-1.37692 7.320779,-2.21081 7.872859,-2.27377 2.071207,-0.23416 5.222377,0.10639 7.045641,0.39363 1.823265,0.28725 4.734026,1.25543 6.350389,2.1291 1.2906012,0.69758 1.3677627,0.70996 1.8313421,0.29405 0.6735248,-0.60429 12.9566186,-13.981098 13.022804,-14.182386 0.080373,-0.244536 -1.8017843,-1.604242 -4.33323229,-3.130328 -4.14830001,-2.50082 -9.14839071,-4.354715 -14.22832781,-5.275461 -2.947818,-0.5343 -10.851418,-0.599048 -13.768552,-0.112794 -5.96337,0.994011 -12.127541,3.393792 -16.555643,6.445287 -3.126374,2.154448 -2.958258,1.838675 -1.707337,3.206926 0.596843,0.652821 3.548482,3.853446 6.559199,7.112506 3.010717,3.25906 5.511302,6.02589 5.55685,6.14854 0.118662,0.31954 0.117704,0.31984 2.354008,-0.7553 z"
                id="path877"
                sodipodi:nodetypes="csssssssssssssccccssccccsssssscsscscssssssssscscccscccscsssscccczsscsscssssc" />
            <path
                style="opacity:0.107317;fill:#3c0157;fill-opacity:1;stroke:none;stroke-width:0.877133;stroke-miterlimit:4;stroke-dasharray:none;stroke-opacity:1"
                d="m -29.09273,165.97217 c -0.938501,-0.32073 -1.651635,-0.62773 -2.918967,-1.25656 -2.301718,-1.14206 -4.66284,-3.07997 -6.489628,-5.32639 -2.307095,-2.83706 -3.857098,-6.2503 -4.45729,-9.81533 -0.203646,-1.2096 -0.277008,-2.12528 -0.275483,-3.43833 0.0039,-3.32523 0.737804,-6.40748 2.235422,-9.38803 1.688178,-3.35981 4.313439,-6.26521 7.503818,-8.30456 2.93643,-1.877 6.195888,-2.96891 9.687818,-3.24543 0.833035,-0.066 2.354166,-0.066 3.187198,0 3.840683,0.30411 7.402408,1.59629 10.555618,3.82957 1.8754369,1.32826 3.6625218,3.11533 4.990799,4.99076 2.2332473,3.15323 3.5243603,6.71185 3.8297045,10.55563 0.059362,0.74751 0.068229,2.33853 0.016855,3.0294 -0.213251,2.86777 -0.9027287,5.42943 -2.1318728,7.92068 -1.5065208,3.0534 -3.738348,5.67928 -6.5161101,7.66654 -1.2594646,0.90105 -2.8189516,1.76747 -4.2747596,2.37495 -0.575863,0.24034 -1.527816,0.59327 -1.544688,0.57272 -0.02171,-0.0254 -5.039969,-13.85511 -5.030579,-13.86268 0.0055,-0.003 0.09838,-0.0254 0.205932,-0.046 0.849686,-0.16254 1.854927,-0.73527 2.649546,-1.50926 1.170658,-1.1403 1.75196,-2.28819 1.922087,-3.79556 0.401066,-3.55349 -1.991476,-6.61156 -5.492806,-7.0207 -3.553439,-0.41526 -6.626825,1.98262 -7.03669,5.49003 -0.168158,1.43901 0.111477,2.76218 0.801892,3.79435 0.210989,0.31543 0.862713,1.05887 1.258383,1.43545 0.681148,0.64833 1.60273,1.19293 2.586924,1.52883 0.185959,0.0635 0.340903,0.11701 0.344289,0.1191 0.0033,0.002 -1.127145,3.1202 -2.512292,6.92935 -1.605409,4.4149 -2.534316,6.92807 -2.562228,6.93217 -0.02403,0.003 -0.26389,-0.0685 -0.5329,-0.16094 z m -0.790337,-8.56651 c 0.627247,-1.65502 1.136228,-3.02005 1.131065,-3.03331 -0.0052,-0.0138 -0.122993,-0.1132 -0.261825,-0.2219 -0.345395,-0.27061 -1.247205,-1.17865 -1.542683,-1.5532 -1.129695,-1.43199 -1.817789,-3.09981 -2.09299,-5.07308 -0.07803,-0.55962 -0.07702,-2.15093 0.0016,-2.71385 0.339278,-2.42498 1.333138,-4.4668 2.971886,-6.10554 1.638748,-1.63874 3.678577,-2.63169 6.105549,-2.97202 0.561715,-0.0788 2.152138,-0.0788 2.71385,0 2.426975,0.34033 4.466798,1.33328 6.105549,2.97202 1.638743,1.63874 2.632609,3.68056 2.971882,6.10554 0.07875,0.56292 0.07977,2.15423 0.0016,2.71385 -0.2752,1.97327 -0.963294,3.64109 -2.092985,5.07308 -0.295478,0.37455 -1.19729,1.28249 -1.54269,1.5532 -0.13881,0.109 -0.256676,0.20873 -0.261822,0.2219 -0.01038,0.0283 2.259039,6.02927 2.293869,6.06616 0.03893,0.0413 0.861166,-0.50178 1.486502,-0.98186 0.844004,-0.64793 1.9262116,-1.67778 2.575418,-2.45089 2.1223548,-2.52731 3.4277151,-5.53544 3.8132853,-8.78748 0.1953108,-1.64751 0.1401502,-3.46948 -0.1531274,-5.05645 -0.407109,-2.20311 -1.2182983,-4.24151 -2.4332892,-6.11452 -2.6794447,-4.13063 -7.0598247,-6.91576 -11.8891077,-7.55936 -1.693498,-0.22557 -3.585385,-0.18054 -5.237403,0.12476 -3.387828,0.62604 -6.429147,2.22764 -8.875386,4.6739 -2.446238,2.44622 -4.047838,5.48754 -4.673897,8.87538 -0.293263,1.58695 -0.348428,3.40893 -0.153104,5.05642 0.385573,3.25208 1.690936,6.2602 3.813292,8.78754 0.649201,0.77307 1.731406,1.80293 2.575412,2.45085 0.625336,0.48009 1.447562,1.02315 1.486502,0.98187 0.01194,-0.0138 0.535559,-1.37781 1.162807,-3.03288 z"
                id="path879" />
            <rect
                style="opacity:1;fill:#3c0157;fill-opacity:1;stroke:none;stroke-width:0.624604;stroke-miterlimit:4;stroke-dasharray:none;stroke-dashoffset:0;stroke-opacity:1"
                height="12.062222" id="rect969" width="4.2394662" x="-23.851704" y="97.840614" />
        </g>
    </g>
</svg>
