<?xml version="1.0" encoding="UTF-8" standalone="no"?>
<svg
   xmlns:dc="http://purl.org/dc/elements/1.1/"
   xmlns:cc="http://creativecommons.org/ns#"
   xmlns:rdf="http://www.w3.org/1999/02/22-rdf-syntax-ns#"
   xmlns:svg="http://www.w3.org/2000/svg"
   xmlns="http://www.w3.org/2000/svg"
   xmlns:sodipodi="http://sodipodi.sourceforge.net/DTD/sodipodi-0.dtd"
   xmlns:inkscape="http://www.inkscape.org/namespaces/inkscape"
   sodipodi:docname="weight_add.svg"
   inkscape:version="1.0 (1.0+r73+1)"
   inkscape:export-ydpi="96"
   inkscape:export-xdpi="96"
   inkscape:export-filename="/home/anze/Documents/AndroidStudioProjects/simple-weight-tracker-plus/app/src/main/res/drawable/weight_add.png"
   width="3.9370079in"
   viewBox="0 0 100 100"
   version="1.1"
   id="svg8"
   height="3.9370079in">
  <defs
     id="defs2">
    <clipPath
       id="clipPath887"
       clipPathUnits="userSpaceOnUse">
      <rect
         transform="matrix(0.6842418,-0.7292552,0.7289542,0.68456247,0,0)"
         y="5.7780399"
         x="-200.43854"
         height="23.350042"
         width="23.967505"
         id="rect889"
         style="opacity:0.49264;fill:#0053ff;stroke-width:1.18049" />
    </clipPath>
  </defs>
  <sodipodi:namedview
     inkscape:zoom="0.7071068"
     inkscape:window-y="0"
     inkscape:window-x="1600"
     inkscape:window-width="1920"
     inkscape:window-maximized="1"
     inkscape:window-height="1025"
     inkscape:snap-global="false"
     inkscape:pageshadow="2"
     inkscape:pageopacity="0.0"
     inkscape:document-units="mm"
     inkscape:document-rotation="0"
     inkscape:cy="-71.23553"
     inkscape:cx="185.51127"
     inkscape:current-layer="g1047"
     units="in"
     showgrid="false"
     pagecolor="#ffffff"
     id="base"
     fit-margin-top="0"
     fit-margin-right="0"
     fit-margin-left="0"
     fit-margin-bottom="0"
     borderopacity="1.0"
     bordercolor="#666666" />
  <metadata
     id="metadata5">
    <rdf:RDF>
      <cc:Work
         rdf:about="">
        <dc:format>image/svg+xml</dc:format>
        <dc:type
           rdf:resource="http://purl.org/dc/dcmitype/StillImage" />
        <dc:title></dc:title>
      </cc:Work>
    </rdf:RDF>
  </metadata>
  <g
     inkscape:label="Ebene 1"
     inkscape:groupmode="layer"
     transform="translate(84.7825,-58.87235)"
     id="layer1">
    <g
       transform="matrix(0.79911989,0,0,0.79627669,-17.031118,11.99367)"
       id="g1047">
      <path
         sodipodi:nodetypes="cccccc"
         id="path916"
         d="m -63.914212,75.971326 89.20685,-0.447243 -9.001104,95.005777 -77.046649,-0.94033 -8.887777,-91.094721 z"
         style="fill:#ebdaf2;fill-opacity:1;stroke:#000000;stroke-width:0.212789px;stroke-linecap:butt;stroke-linejoin:miter;stroke-opacity:1" />
      <path
         sodipodi:nodetypes="csssssssssssssccccssccccsssssscsscscssssssssscscccscccscsssscccczsscsscssssc"
         id="path877"
         d="m -57.996645,171.65177 c -2.809027,-0.82279 -5.906187,-3.87766 -6.751659,-6.7247 -0.23396,-0.78782 -0.301839,-0.91529 -0.801329,-6.35931 -0.275278,-3.00029 -0.68165,-7.61538 -1.319162,-14.84573 -0.759503,-8.61394 -1.944716,-22.04278 -2.633811,-29.84189 -0.689106,-7.7991 -1.516371,-17.227865 -1.838378,-20.952811 -0.322006,-3.724938 -0.660947,-6.804368 -0.753201,-6.843172 -0.252788,-0.106317 -0.209633,-6.172963 0.04393,-6.172963 0.116403,0 0.21165,-0.159568 0.21165,-0.354594 0,-0.19502 0.344403,-1.051619 0.765351,-1.903538 0.546215,-1.10546 1.149961,-1.908744 2.10866,-2.805554 1.2597,-1.178389 3.633524,-2.555518 4.405068,-2.555518 0.187068,0 0.340123,-0.09524 0.340123,-0.21164 0,-0.140395 14.180183,-0.211651 42.117263,-0.211651 23.164498,0 40.756806,-0.193487 41.4769,0.143731 1.863284,0.930269 4.631048,1.989077 5.923297,3.37974 1.015606,1.111244 1.833488,1.822491 2.200567,3.876955 0.793504,4.759553 -0.01509,9.60729 -0.361928,13.658204 -0.322005,3.724946 -1.15331,13.201321 -1.847342,21.058631 -0.694024,7.85732 -1.833713,20.76235 -2.532639,28.67785 -1.911544,21.64877 -1.864821,21.19498 -2.313767,22.47231 -1.374436,4.08029 -5.9315,6.82204 -7.412081,6.87395 0,0.0979 -15.8098514,0.17814 -35.133,0.17814 -12.840466,0.21704 -24.93868,-0.007 -35.894498,-0.53644 z M 12.905923,167.521 c 1.54907,-0.57958 3.168188,-2.31587 3.606062,-3.86701 0.272125,-0.964 0.797438,-6.40147 2.44701,-25.32889 0.238406,-2.73551 0.907616,-10.3071 1.487131,-16.82575 0.579516,-6.51866 1.147184,-12.94736 1.261493,-14.28601 0.114309,-1.33866 0.637413,-7.21182 1.162463,-13.051491 0.525041,-5.83967 0.953691,-11.220731 0.952556,-11.957919 -0.0024,-1.776126 -0.65198,-3.159989 -2.088414,-4.45147 -2.010598,-1.8077 2.021501,-1.661962 -44.267741,-1.600073 l -41.156802,0.05504 -0.846575,0.455464 c -2.117771,1.13937 -3.486548,3.294288 -3.490068,5.494539 -7.99e-4,0.711596 0.333749,5.045016 0.744194,9.629825 0.410446,4.5848 1.078784,12.145605 1.485205,16.801785 0.40643,4.65618 1.06816,12.13253 1.470534,16.6141 0.402367,4.48157 0.973586,10.95789 1.269372,14.39183 1.586618,18.41989 2.038002,23.05183 2.348522,24.09958 0.50162,1.69256 2.347955,3.53485 4.058976,4.05004 0.318479,0.0959 15.837697,0.18254 34.487147,0.19256 33.699446,0.018 33.915247,0.0155 35.068935,-0.41614 z M -33.66685,112.94887 c -0.833961,-0.12077 -1.203633,-0.48241 -7.593374,-7.42869 -3.694206,-4.01595 -6.897126,-7.500582 -7.117608,-7.74363 -0.831575,-2.1144 0.262898,-3.24113 1.593666,-4.792611 1.997637,-2.328949 4.383086,-3.166245 7.390859,-4.61622 10.81475,-5.213551 23.721585,-5.208168 34.6011356,0.0144 2.7697345,1.329581 5.67024732,3.163981 7.8103196,4.939564 1.5131117,1.13418 1.2178217,1.722169 1.4521204,3.309398 0.106045,0.700159 -0.00639,0.868332 -2.0446104,3.068848 -2.49953872,2.698041 -2.78773266,3.009731 -8.1209833,8.783251 l -4.0078528,4.33871 -1.4251551,0.1774 c -1.383838,0.17224 -1.45328,0.15802 -2.395901,-0.49052 -2.319494,-1.59586 -5.028411,-2.33244 -8.577927,-2.33244 -3.534351,0 -6.259691,0.73746 -8.550804,2.31379 -0.953955,0.65634 -1.292928,0.70792 -3.013885,0.45871 z m 2.741026,-5.08745 c 2.453262,-1.17307 6.236879,-1.88348 6.707219,-1.93713 1.764548,-0.19948 4.449162,0.0906 6.002477,0.33535 1.553316,0.24473 4.033115,1.06956 5.410162,1.81387 1.099517,0.59431 1.165255,0.60485 1.560197,0.25052 0.573804,-0.51482 11.03828642,-11.911089 11.09467252,-12.082575 0.06847338,-0.20833 -1.53501542,-1.366721 -3.69166212,-2.666857 -3.5341106,-2.130553 -7.7938964,-3.709965 -12.1217084,-4.494387 -2.511371,-0.455192 -9.244777,-0.510354 -11.730007,-0.09609 -5.080444,0.84684 -10.33196,2.891315 -14.104446,5.491011 -2.663488,1.835463 -2.520264,1.566445 -1.454551,2.732114 0.508475,0.556166 3.0231,3.282914 5.588056,6.059444 2.564957,2.77653 4.695309,5.1337 4.734114,5.23819 0.101093,0.27224 0.10028,0.27248 2.005477,-0.64346 z"
         style="fill:#3c0157;fill-opacity:1;stroke:none;stroke-width:1.73182;stroke-miterlimit:4;stroke-dasharray:none;stroke-opacity:1" />
      <rect
         y="98.062469"
         x="-23.633821"
         width="3.6755564"
         id="rect969"
         height="10.457772"
         style="opacity:1;fill:#3c0157;fill-opacity:1;stroke:none;stroke-width:0.541523;stroke-miterlimit:4;stroke-dasharray:none;stroke-dashoffset:0;stroke-opacity:1" />
      <g
         transform="matrix(0.86698565,0,0,0.86698565,-2.954736,13.236058)"
         id="g924">
        <path
           style="opacity:0.997;fill:#3c0157;fill-opacity:1;stroke-width:0.0831094"
           d="m -22.998416,166.74747 c -3.964306,-0.3439 -7.293553,-1.46795 -10.329773,-3.4876 -8.23643,-5.47878 -11.609551,-15.68098 -8.28626,-25.06227 0.66745,-1.88414 2.078014,-4.4015 3.357127,-5.99126 5.159751,-6.41291 13.290453,-9.27257 21.291952,-7.48861 6.548658,1.46005 12.2851524,6.29419 14.8599001,12.5224 1.12179443,2.71359 1.61653933,5.21679 1.62085903,8.20088 0.00348,2.41011 -0.2776541,4.29931 -0.95731593,6.43288 -2.5273705,7.93381 -9.1597412,13.52943 -17.4448072,14.71789 -0.833539,0.11957 -3.405471,0.21696 -4.111682,0.15569 z m 4.332119,-3.77499 c 7.64794,-1.37353 13.4113762,-7.36183 14.5402984,-15.10762 0.1750257,-1.2009 0.1750257,-3.56355 0,-4.76445 -0.5947358,-4.08061 -2.4993714,-7.78557 -5.4086798,-10.52113 -6.3146066,-5.93748 -15.8928876,-6.46242 -22.7968896,-1.2494 -3.738464,2.82282 -6.283384,7.18138 -6.885749,11.79288 -0.16329,1.25009 -0.16112,3.58919 0.0044,4.78039 1.062745,7.64678 6.989027,13.77979 14.555242,15.06299 1.366381,0.23172 1.441428,0.23641 3.318453,0.20731 1.267937,-0.0197 1.948095,-0.0708 2.672893,-0.20097 z m -4.431863,-5.41174 c -0.967411,-0.31042 -1.640421,-0.87628 -2.023021,-1.70092 l -0.198532,-0.42791 -8.01e-4,-3.30504 -8.03e-4,-3.30504 -3.256232,-0.0252 -3.256234,-0.0253 -0.497767,-0.24491 c -0.939475,-0.46224 -1.633048,-1.37508 -1.857124,-2.44424 -0.356846,-1.70264 0.402723,-3.43531 1.78424,-4.07005 l 0.464006,-0.21319 2.791047,0.005 c 1.535076,0.003 3.002988,-0.0149 3.262026,-0.0389 l 0.470978,-0.0435 0.02679,-3.17714 0.02679,-3.17713 0.264286,-0.55989 c 0.619338,-1.31206 1.987532,-2.06383 3.555538,-1.95363 1.15415,0.0812 1.996898,0.51276 2.622237,1.3431 0.536846,0.71284 0.568173,0.95785 0.568173,4.44375 v 3.09588 h 2.969179 c 2.389085,0 3.065781,0.0249 3.463636,0.12694 0.947869,0.24333 1.811662,1.03791 2.2152726,2.03776 0.155193,0.38445 0.185045,0.6182 0.186072,1.45701 0.0012,0.96314 -0.0089,1.02077 -0.28034,1.60196 -0.3253356,0.69659 -0.9385516,1.33507 -1.5609436,1.62524 -0.386511,0.18019 -0.488103,0.186 -3.691526,0.21103 l -3.294077,0.0257 -0.02438,3.22185 -0.02438,3.22185 -0.220712,0.47249 c -0.586917,1.25648 -1.820858,1.98913 -3.333277,1.97912 -0.415198,-0.003 -0.859998,-0.0632 -1.15011,-0.15627 z"
           id="path849" />
        <path
           id="path849-3"
           d="m -117.93825,170.59621 c -3.96431,-0.34389 -7.29356,-1.46795 -10.32978,-3.4876 -8.23643,-5.47878 -11.60955,-15.68098 -8.28626,-25.06227 0.66745,-1.88414 2.07802,-4.4015 3.35713,-5.99126 5.15975,-6.41291 13.29045,-9.27257 21.29195,-7.48861 6.54866,1.46005 12.285154,6.29419 14.859902,12.5224 1.121794,2.71359 1.61654,5.21679 1.620861,8.20088 0.0035,2.41011 -0.277655,4.29931 -0.957317,6.43288 -2.527372,7.93381 -9.159746,13.52944 -17.444806,14.7179 -0.83354,0.11957 -3.40547,0.21696 -4.11168,0.15568 z m 4.33211,-3.77499 c 7.64794,-1.37353 13.41138,-7.36183 14.540304,-15.10762 0.175026,-1.2009 0.175026,-3.56355 0,-4.76445 -0.594736,-4.08061 -2.499374,-7.78557 -5.408684,-10.52113 -6.3146,-5.93748 -15.89288,-6.46242 -22.79689,-1.2494 -3.73846,2.82282 -6.28338,7.18138 -6.88575,11.79288 -0.16329,1.25009 -0.16112,3.58919 0.004,4.78039 1.06275,7.64678 6.98903,13.77979 14.55525,15.06299 1.36638,0.23172 1.44142,0.23641 3.31845,0.20731 1.26794,-0.0197 1.94809,-0.0708 2.67289,-0.20097 z m -4.43186,-5.41174 c -0.96741,-0.31042 -1.64042,-0.87628 -2.02302,-1.70092 l -0.19853,-0.42791 -8e-4,-3.30504 -7.9e-4,-3.30504 -3.25623,-0.0252 -3.25624,-0.0253 -0.49776,-0.24491 c -0.93949,-0.46224 -1.63307,-1.37508 -1.85714,-2.44424 -0.35685,-1.70264 0.40272,-3.43531 1.78424,-4.07005 l 0.464,-0.21319 2.79105,0.005 c 1.53508,0.003 3.00299,-0.0149 3.26203,-0.0389 l 0.51707,2.8e-4 -0.0193,-3.22092 0.0268,-3.17713 0.26429,-0.55989 c 0.61934,-1.31206 1.98753,-2.06383 3.55554,-1.95363 1.15415,0.0812 1.9969,0.51276 2.62224,1.3431 0.53684,0.71284 0.56817,0.95785 0.56817,4.44375 v 3.09588 h 2.96918 c 2.38908,0 3.06578,0.0249 3.46363,0.12694 0.94787,0.24333 1.81167,1.03791 2.21528,2.03776 0.15519,0.38445 0.18504,0.6182 0.18607,1.45701 10e-4,0.96314 -0.009,1.02077 -0.28034,1.60196 -0.32534,0.69659 -0.93855,1.33507 -1.56095,1.62524 -0.38651,0.18019 -0.4881,0.186 -3.69152,0.21103 l -3.29408,0.0257 -0.0244,3.22185 -0.0244,3.22185 -0.22071,0.47249 c -0.58692,1.25648 -1.82086,1.98913 -3.33328,1.97912 -0.4152,-0.003 -0.86,-0.0632 -1.15011,-0.15627 z"
           style="opacity:0.997;fill:#3c0157;fill-opacity:1;stroke:#ebdaf2;stroke-width:2.50722;stroke-miterlimit:4;stroke-dasharray:none;stroke-opacity:1"
           clip-path="url(#clipPath887)"
           transform="translate(95.164195,-3.8567751)"
           sodipodi:nodetypes="csscsssssccssssscsccccscccccsssccccccscsscscsccsccccsccc" />
      </g>
    </g>
  </g>
</svg>
